<svg xmlns="http://www.w3.org/2000/svg" xmlns:xlink="http://www.w3.org/1999/xlink" width="250" zoomAndPan="magnify" viewBox="0 0 187.5 187.499992" height="250" preserveAspectRatio="xMidYMid meet" version="1.2"><defs><clipPath id="58c50f74e9"><path d="M 18.699219 18.699219 L 168.300781 18.699219 L 168.300781 168.300781 L 18.699219 168.300781 Z M 18.699219 18.699219 "/></clipPath></defs><g id="6e38b3e015"><g clip-rule="nonzero" clip-path="url(#58c50f74e9)"><path style=" stroke:none;fill-rule:nonzero;fill:#000000;fill-opacity:1;" d="M 168.144531 96.730469 C 152.429688 91.78125 134.105469 91.195312 115.839844 95.195312 C 112.96875 88.101562 109.730469 81.144531 106.125 74.339844 C 124.019531 67.714844 139.296875 57.847656 148.964844 43.503906 C 160.933594 56.773438 168.300781 74.28125 168.300781 93.5 C 168.300781 94.589844 168.175781 95.652344 168.144531 96.730469 Z M 144.117188 38.597656 C 135.21875 52.527344 120.378906 62.023438 102.84375 68.367188 C 93.511719 51.9375 82.105469 36.589844 68.996094 22.902344 C 76.6875 20.226562 84.90625 18.699219 93.5 18.699219 C 113.03125 18.699219 130.777344 26.285156 144.117188 38.597656 Z M 61.792969 25.851562 C 74.84375 39.109375 86.226562 54.347656 95.578125 70.785156 C 71.726562 78.023438 44.09375 80.25 19.933594 80.3125 C 24.261719 56.144531 40.207031 36.015625 61.792969 25.851562 Z M 18.699219 93.5 C 18.699219 91.34375 18.835938 89.222656 19.023438 87.125 C 44.371094 87.113281 73.585938 84.75 98.863281 76.832031 C 102.363281 83.433594 105.554688 90.191406 108.378906 97.074219 C 82.773438 104.484375 58.167969 121.164062 42.175781 147.78125 C 27.757812 134.128906 18.699219 114.867188 18.699219 93.5 Z M 47.367188 152.269531 C 62.535156 126.425781 86.246094 110.324219 110.824219 103.335938 C 118.027344 122.449219 122.574219 142.28125 123.957031 161.75 C 114.652344 165.925781 104.351562 168.300781 93.5 168.300781 C 76.089844 168.300781 60.089844 162.273438 47.367188 152.269531 Z M 130.769531 158.257812 C 129.429688 139.097656 125.148438 119.957031 118.316406 101.523438 C 135.457031 97.945312 152.625 98.660156 167.230469 103.53125 C 167.335938 103.566406 167.441406 103.542969 167.546875 103.566406 C 164.375 126.957031 150.394531 146.921875 130.769531 158.257812 Z M 130.769531 158.257812 "/></g></g></svg>