<svg xmlns="http://www.w3.org/2000/svg" xmlns:xlink="http://www.w3.org/1999/xlink" width="250" zoomAndPan="magnify" viewBox="0 0 187.5 187.499992" height="250" preserveAspectRatio="xMidYMid meet" version="1.2"><defs><clipPath id="c102e4319b"><path d="M 18.699219 18.699219 L 168.300781 18.699219 L 168.300781 168.300781 L 18.699219 168.300781 Z M 18.699219 18.699219 "/></clipPath><clipPath id="4e211fbe6e"><path d="M 70 40 L 134 40 L 134 168.300781 L 70 168.300781 Z M 70 40 "/></clipPath><clipPath id="c643711352"><path d="M 65 35 L 139 35 L 139 168.300781 L 65 168.300781 Z M 65 35 "/></clipPath></defs><g id="187cbeacb2"><g clip-rule="nonzero" clip-path="url(#c102e4319b)"><path style="fill-rule:nonzero;fill:#4267b2;fill-opacity:1;stroke-width:1;stroke-linecap:butt;stroke-linejoin:miter;stroke:#4267b2;stroke-opacity:1;stroke-miterlimit:10;" d="M 462.702052 234.601508 C 462.702052 238.230849 462.608992 241.871821 462.434504 245.501162 C 462.248384 249.130502 461.980837 252.759842 461.631862 256.37755 C 461.271254 259.995257 460.829219 263.601333 460.294124 267.207408 C 459.759029 270.801851 459.142507 274.384661 458.432924 277.944206 C 457.723342 281.515384 456.920699 285.063297 456.036629 288.587944 C 455.152559 292.112592 454.187061 295.625607 453.128504 299.103725 C 452.081579 302.581843 450.941594 306.036695 449.708549 309.456651 C 448.487136 312.876606 447.172663 316.273296 445.788396 319.635089 C 444.392496 322.996881 442.926801 326.312144 441.368046 329.604142 C 439.80929 332.884507 438.18074 336.141607 436.45913 339.340545 C 434.749153 342.551115 432.957748 345.715155 431.084915 348.832666 C 429.212082 351.950176 427.269455 355.021156 425.257032 358.045606 C 423.232977 361.070056 421.139127 364.047976 418.975482 366.967734 C 416.811837 369.887492 414.566764 372.749087 412.263529 375.564152 C 409.960294 378.367585 407.575631 381.124488 405.144438 383.823228 C 402.701613 386.510335 400.188993 389.150913 397.61821 391.721696 C 395.047428 394.292478 392.418482 396.793466 389.719742 399.236291 C 387.021002 401.679116 384.275732 404.052146 381.460667 406.367014 C 378.645602 408.670249 375.784006 410.903689 372.864249 413.067335 C 369.944491 415.242612 366.966571 417.336462 363.942121 419.348885 C 360.929303 421.37294 357.858323 423.315568 354.72918 425.1884 C 351.61167 427.061233 348.44763 428.852638 345.248692 430.562616 C 342.038122 432.272593 338.792654 433.912776 335.500656 435.471531 C 332.220291 437.018654 328.893396 438.495981 325.531603 439.880249 C 322.169811 441.276149 318.784753 442.590621 315.353165 443.812034 C 311.93321 445.033447 308.478357 446.173432 305.00024 447.231989 C 301.522122 448.290547 298.020739 449.256044 294.484459 450.140114 C 290.959811 451.024184 287.411898 451.815194 283.852353 452.524777 C 280.281175 453.23436 276.698365 453.862515 273.103923 454.39761 C 269.50948 454.932705 265.903405 455.37474 262.274064 455.735347 C 258.656357 456.084322 255.038649 456.35187 251.397676 456.53799 C 247.768336 456.712477 244.138996 456.805537 240.498023 456.805537 C 236.868683 456.805537 233.22771 456.712477 229.59837 456.53799 C 225.96903 456.35187 222.339689 456.084322 218.721982 455.735347 C 215.104274 455.37474 211.498199 454.932705 207.892123 454.39761 C 204.297681 453.862515 200.71487 453.23436 197.155325 452.524777 C 193.584148 451.815194 190.036235 451.024184 186.511587 450.140114 C 182.986939 449.256044 179.473924 448.290547 175.995806 447.231989 C 172.517689 446.173432 169.062836 445.033447 165.642881 443.812034 C 162.222926 442.590621 158.826235 441.276149 155.464443 439.880249 C 152.10265 438.495981 148.787387 437.018654 145.49539 435.471531 C 142.215024 433.912776 138.957924 432.272593 135.758986 430.562616 C 132.548416 428.852638 129.384376 427.061233 126.266866 425.1884 C 123.149356 423.315568 120.078375 421.37294 117.053925 419.348885 C 114.029475 417.336462 111.051555 415.242612 108.131797 413.067335 C 105.21204 410.903689 102.350444 408.670249 99.535379 406.367014 C 96.731946 404.052146 93.975044 401.679116 91.276304 399.236291 C 88.589196 396.793466 85.948618 394.292478 83.377836 391.721696 C 80.807053 389.150913 78.306065 386.510335 75.86324 383.823228 C 73.420415 381.124488 71.047385 378.367585 68.732517 375.564152 C 66.429282 372.749087 64.195842 369.887492 62.032197 366.967734 C 59.856919 364.047976 57.763069 361.070056 55.750646 358.045606 C 53.726591 355.021156 51.783964 351.950176 49.911131 348.832666 C 48.038298 345.715155 46.246893 342.551115 44.536916 339.340545 C 42.826938 336.141607 41.186755 332.884507 39.628 329.604142 C 38.080878 326.312144 36.60355 322.996881 35.219283 319.635089 C 33.823383 316.273296 32.50891 312.876606 31.287497 309.456651 C 30.066085 306.036695 28.9261 302.581843 27.867542 299.103725 C 26.808985 295.625607 25.843487 292.112592 24.959417 288.587944 C 24.075347 285.063297 23.284337 281.515384 22.574754 277.944206 C 21.865172 274.384661 21.237017 270.801851 20.701922 267.207408 C 20.166827 263.601333 19.724792 259.995257 19.364184 256.37755 C 19.015209 252.759842 18.747662 249.130502 18.573174 245.501162 C 18.387054 241.871821 18.305627 238.230849 18.305627 234.601508 C 18.305627 230.960536 18.387054 227.331195 18.573174 223.701855 C 18.747662 220.060882 19.015209 216.443175 19.364184 212.825467 C 19.724792 209.196127 20.166827 205.590052 20.701922 201.995609 C 21.237017 198.401166 21.865172 194.818356 22.574754 191.247178 C 23.284337 187.687633 24.075347 184.13972 24.959417 180.615072 C 25.843487 177.078792 26.808985 173.57741 27.867542 170.099292 C 28.9261 166.621174 30.066085 163.166321 31.287497 159.746366 C 32.50891 156.314778 33.823383 152.929721 35.219283 149.567928 C 36.60355 146.206135 38.080878 142.87924 39.628 139.598875 C 41.186755 136.306877 42.826938 133.06141 44.536916 129.850839 C 46.246893 126.651902 48.038298 123.487861 49.911131 120.370351 C 51.783964 117.252841 53.726591 114.170228 55.750646 111.157411 C 57.763069 108.13296 59.856919 105.15504 62.032197 102.235283 C 64.195842 99.315525 66.429282 96.45393 68.732517 93.638865 C 71.047385 90.823799 73.420415 88.078529 75.86324 85.379789 C 78.306065 82.681049 80.807053 80.052104 83.377836 77.481321 C 85.948618 74.910538 88.589196 72.397918 91.276304 69.955093 C 93.975044 67.5239 96.731946 65.139238 99.535379 62.836003 C 102.350444 60.532767 105.21204 58.299327 108.131797 56.12405 C 111.051555 53.960405 114.029475 51.866554 117.053925 49.842499 C 120.078375 47.830077 123.149356 45.887449 126.266866 44.014616 C 129.384376 42.141784 132.548416 40.350379 135.758986 38.640401 C 138.957924 36.918791 142.215024 35.290241 145.49539 33.731486 C 148.787387 32.184363 152.10265 30.707036 155.464443 29.311136 C 158.826235 27.926868 162.222926 26.612395 165.642881 25.390983 C 169.062836 24.16957 172.517689 23.017953 175.995806 21.971028 C 179.473924 20.91247 182.986939 19.946972 186.511587 19.062902 C 190.036235 18.178832 193.584148 17.37619 197.155325 16.666607 C 200.71487 15.957025 204.297681 15.340502 207.892123 14.805407 C 211.498199 14.270312 215.104274 13.828277 218.721982 13.46767 C 222.339689 13.118694 225.96903 12.851147 229.59837 12.665027 C 233.22771 12.490539 236.868683 12.397479 240.498023 12.397479 C 244.138996 12.397479 247.768336 12.490539 251.397676 12.665027 C 255.038649 12.851147 258.656357 13.118694 262.274064 13.46767 C 265.903405 13.828277 269.50948 14.270312 273.103923 14.805407 C 276.698365 15.340502 280.281175 15.957025 283.852353 16.666607 C 287.411898 17.37619 290.959811 18.178832 294.484459 19.062902 C 298.020739 19.946972 301.522122 20.91247 305.00024 21.971028 C 308.478357 23.017953 311.93321 24.16957 315.353165 25.390983 C 318.784753 26.612395 322.169811 27.926868 325.531603 29.311136 C 328.893396 30.707036 332.220291 32.184363 335.500656 33.731486 C 338.792654 35.290241 342.038122 36.918791 345.248692 38.640401 C 348.44763 40.350379 351.61167 42.141784 354.72918 44.014616 C 357.858323 45.887449 360.929303 47.830077 363.942121 49.842499 C 366.966571 51.866554 369.944491 53.960405 372.864249 56.12405 C 375.784006 58.299327 378.645602 60.532767 381.460667 62.836003 C 384.275732 65.139238 387.021002 67.5239 389.719742 69.955093 C 392.418482 72.397918 395.047428 74.910538 397.61821 77.481321 C 400.188993 80.052104 402.701613 82.681049 405.144438 85.379789 C 407.575631 88.078529 409.960294 90.823799 412.263529 93.638865 C 414.566764 96.45393 416.811837 99.315525 418.975482 102.235283 C 421.139127 105.15504 423.232977 108.13296 425.257032 111.157411 C 427.269455 114.170228 429.212082 117.252841 431.084915 120.370351 C 432.957748 123.487861 434.749153 126.651902 436.45913 129.850839 C 438.18074 133.06141 439.80929 136.306877 441.368046 139.598875 C 442.926801 142.87924 444.392496 146.206135 445.788396 149.567928 C 447.172663 152.929721 448.487136 156.314778 449.708549 159.746366 C 450.941594 163.166321 452.081579 166.621174 453.128504 170.099292 C 454.187061 173.57741 455.152559 177.078792 456.036629 180.615072 C 456.920699 184.13972 457.723342 187.687633 458.432924 191.247178 C 459.142507 194.818356 459.759029 198.401166 460.294124 201.995609 C 460.829219 205.590052 461.271254 209.196127 461.631862 212.825467 C 461.980837 216.443175 462.248384 220.060882 462.434504 223.701855 C 462.608992 227.331195 462.702052 230.960536 462.702052 234.601508 Z M 462.702052 234.601508 " transform="matrix(0.335805,0,0,0.335805,12.739601,14.704054)"/></g><g clip-rule="nonzero" clip-path="url(#4e211fbe6e)"><path style=" stroke:none;fill-rule:nonzero;fill:#ffffff;fill-opacity:1;" d="M 111.03125 40.898438 C 105.085938 41.972656 103.039062 42.980469 99.613281 44.925781 C 95.953125 47.007812 93.398438 49.191406 91.652344 50.972656 C 85.945312 56.882812 84.667969 62.386719 83.59375 66.652344 C 81.984375 72.933594 82.152344 78.84375 82.152344 78.84375 L 82.152344 83.441406 L 70.164062 83.441406 L 70.164062 104.296875 L 82.152344 104.296875 L 82.152344 167.261719 C 85.84375 167.832031 89.640625 168.132812 93.5 168.132812 C 99.210938 168.132812 104.785156 167.496094 110.121094 166.285156 L 110.121094 104.296875 L 128.355469 104.296875 L 128.355469 83.441406 L 110.121094 83.441406 L 110.121094 79.011719 C 110.121094 79.011719 110.121094 78.203125 110.121094 78.105469 C 110.121094 78.003906 110.121094 77.867188 110.121094 77.769531 C 110.121094 76.863281 110.15625 75.519531 110.359375 74.34375 C 110.863281 71.289062 111.902344 68.902344 113.648438 66.789062 C 115.664062 64.371094 118.015625 63.328125 120.632812 62.925781 C 127.113281 61.917969 132.519531 64.167969 132.519531 64.167969 L 133.527344 42.238281 C 133.527344 42.238281 129.464844 40.929688 122.75 40.460938 C 118.015625 40.125 113.816406 40.394531 111.03125 40.898438 Z M 111.03125 40.898438 "/></g><g clip-rule="nonzero" clip-path="url(#c643711352)"><path style="fill:none;stroke-width:1;stroke-linecap:butt;stroke-linejoin:miter;stroke:#ffffff;stroke-opacity:1;stroke-miterlimit:10;" d="M 292.704686 78.004784 C 275.00002 81.203721 268.90459 84.204906 258.702887 89.997892 C 247.803233 96.198015 240.195578 102.700583 234.99585 108.005003 C 218.000767 125.604977 214.196939 141.99517 210.998001 154.697861 C 206.205411 173.402922 206.705608 191.002896 206.705608 191.002896 L 206.705608 204.694349 L 171.005464 204.694349 L 171.005464 266.80027 L 206.705608 266.80027 L 206.705608 454.30455 C 217.698322 456.002895 229.005112 456.898597 240.498023 456.898597 C 257.504739 456.898597 274.104318 455.0025 289.994314 451.396424 L 289.994314 266.80027 L 344.294827 266.80027 L 344.294827 204.694349 L 289.994314 204.694349 L 289.994314 191.503093 C 289.994314 191.503093 289.994314 189.095166 289.994314 188.804353 C 289.994314 188.501908 289.994314 188.09477 289.994314 187.803958 C 289.994314 185.105218 290.099006 181.103638 290.703896 177.602255 C 292.204489 168.505639 295.298734 161.398181 300.498462 155.104998 C 306.500832 147.90448 313.503598 144.798603 321.297373 143.600455 C 340.595692 140.59927 356.695073 147.29959 356.695073 147.29959 L 359.696258 81.994731 C 359.696258 81.994731 347.598457 78.097844 327.602188 76.701943 C 313.503598 75.701548 300.998659 76.504191 292.704686 78.004784 Z M 292.704686 78.004784 " transform="matrix(0.335805,0,0,0.335805,12.739601,14.704054)"/></g></g></svg>