<svg xmlns="http://www.w3.org/2000/svg" xmlns:xlink="http://www.w3.org/1999/xlink" width="250" zoomAndPan="magnify" viewBox="0 0 187.5 187.499992" height="250" preserveAspectRatio="xMidYMid meet" version="1.2"><defs><clipPath id="a50b1b6e17"><path d="M 14.378906 14.378906 L 172.957031 14.378906 L 172.957031 172.957031 L 14.378906 172.957031 Z M 14.378906 14.378906 "/></clipPath><clipPath id="50176e79dd"><path d="M 172.957031 93.667969 C 172.957031 94.964844 172.925781 96.261719 172.863281 97.558594 C 172.796875 98.855469 172.703125 100.148438 172.574219 101.441406 C 172.449219 102.730469 172.289062 104.019531 172.097656 105.300781 C 171.910156 106.585938 171.6875 107.863281 171.433594 109.136719 C 171.179688 110.410156 170.894531 111.675781 170.582031 112.933594 C 170.265625 114.191406 169.917969 115.441406 169.542969 116.683594 C 169.167969 117.925781 168.757812 119.15625 168.320312 120.378906 C 167.886719 121.601562 167.417969 122.8125 166.921875 124.011719 C 166.425781 125.210938 165.898438 126.394531 165.34375 127.570312 C 164.789062 128.742188 164.207031 129.898438 163.59375 131.042969 C 162.984375 132.1875 162.34375 133.316406 161.675781 134.429688 C 161.007812 135.542969 160.316406 136.640625 159.59375 137.71875 C 158.875 138.796875 158.125 139.859375 157.351562 140.902344 C 156.582031 141.941406 155.78125 142.964844 154.960938 143.96875 C 154.136719 144.972656 153.289062 145.953125 152.417969 146.914062 C 151.546875 147.875 150.652344 148.816406 149.734375 149.734375 C 148.816406 150.652344 147.875 151.546875 146.914062 152.417969 C 145.953125 153.289062 144.972656 154.136719 143.96875 154.960938 C 142.964844 155.78125 141.941406 156.582031 140.902344 157.351562 C 139.859375 158.125 138.796875 158.875 137.71875 159.59375 C 136.640625 160.316406 135.542969 161.007812 134.429688 161.675781 C 133.316406 162.34375 132.1875 162.984375 131.042969 163.59375 C 129.898438 164.207031 128.742188 164.789062 127.570312 165.34375 C 126.394531 165.898438 125.210938 166.425781 124.011719 166.921875 C 122.8125 167.417969 121.601562 167.886719 120.378906 168.320312 C 119.15625 168.757812 117.925781 169.167969 116.683594 169.542969 C 115.441406 169.917969 114.191406 170.265625 112.933594 170.582031 C 111.675781 170.894531 110.410156 171.179688 109.136719 171.433594 C 107.863281 171.6875 106.585938 171.910156 105.300781 172.097656 C 104.019531 172.289062 102.730469 172.449219 101.441406 172.574219 C 100.148438 172.703125 98.855469 172.796875 97.558594 172.863281 C 96.261719 172.925781 94.964844 172.957031 93.667969 172.957031 C 92.371094 172.957031 91.074219 172.925781 89.777344 172.863281 C 88.480469 172.796875 87.1875 172.703125 85.898438 172.574219 C 84.605469 172.449219 83.316406 172.289062 82.035156 172.097656 C 80.75 171.910156 79.472656 171.6875 78.199219 171.433594 C 76.925781 171.179688 75.660156 170.894531 74.402344 170.582031 C 73.144531 170.265625 71.894531 169.917969 70.652344 169.542969 C 69.410156 169.167969 68.179688 168.757812 66.957031 168.320312 C 65.734375 167.886719 64.523438 167.417969 63.324219 166.921875 C 62.128906 166.425781 60.941406 165.898438 59.769531 165.34375 C 58.59375 164.789062 57.4375 164.207031 56.292969 163.59375 C 55.148438 162.984375 54.019531 162.34375 52.90625 161.675781 C 51.792969 161.007812 50.695312 160.316406 49.617188 159.59375 C 48.539062 158.875 47.476562 158.125 46.4375 157.351562 C 45.394531 156.582031 44.371094 155.78125 43.367188 154.960938 C 42.363281 154.136719 41.382812 153.289062 40.421875 152.417969 C 39.460938 151.546875 38.519531 150.652344 37.601562 149.734375 C 36.683594 148.816406 35.789062 147.875 34.917969 146.914062 C 34.046875 145.953125 33.199219 144.972656 32.378906 143.96875 C 31.554688 142.964844 30.757812 141.941406 29.984375 140.902344 C 29.210938 139.859375 28.464844 138.796875 27.742188 137.71875 C 27.019531 136.640625 26.328125 135.542969 25.660156 134.429688 C 24.992188 133.316406 24.355469 132.1875 23.742188 131.042969 C 23.128906 129.898438 22.546875 128.742188 21.992188 127.570312 C 21.4375 126.394531 20.910156 125.210938 20.414062 124.011719 C 19.917969 122.8125 19.453125 121.601562 19.015625 120.378906 C 18.578125 119.15625 18.171875 117.925781 17.792969 116.683594 C 17.417969 115.441406 17.070312 114.191406 16.757812 112.933594 C 16.441406 111.675781 16.15625 110.410156 15.902344 109.136719 C 15.648438 107.863281 15.429688 106.585938 15.238281 105.300781 C 15.046875 104.019531 14.890625 102.730469 14.761719 101.441406 C 14.632812 100.148438 14.539062 98.855469 14.476562 97.558594 C 14.410156 96.261719 14.378906 94.964844 14.378906 93.667969 C 14.378906 92.371094 14.410156 91.074219 14.476562 89.777344 C 14.539062 88.480469 14.632812 87.1875 14.761719 85.898438 C 14.890625 84.605469 15.046875 83.316406 15.238281 82.035156 C 15.429688 80.75 15.648438 79.472656 15.902344 78.199219 C 16.15625 76.925781 16.441406 75.660156 16.757812 74.402344 C 17.070312 73.144531 17.417969 71.894531 17.792969 70.652344 C 18.171875 69.410156 18.578125 68.179688 19.015625 66.957031 C 19.453125 65.734375 19.917969 64.523438 20.414062 63.324219 C 20.910156 62.128906 21.4375 60.941406 21.992188 59.769531 C 22.546875 58.59375 23.128906 57.4375 23.742188 56.292969 C 24.355469 55.148438 24.992188 54.019531 25.660156 52.90625 C 26.328125 51.792969 27.019531 50.695312 27.742188 49.617188 C 28.464844 48.539062 29.210938 47.476562 29.984375 46.4375 C 30.757812 45.394531 31.554688 44.371094 32.378906 43.367188 C 33.199219 42.363281 34.046875 41.382812 34.917969 40.421875 C 35.789062 39.460938 36.683594 38.519531 37.601562 37.601562 C 38.519531 36.683594 39.460938 35.789062 40.421875 34.917969 C 41.382812 34.046875 42.363281 33.199219 43.367188 32.378906 C 44.371094 31.554688 45.394531 30.757812 46.4375 29.984375 C 47.476562 29.210938 48.539062 28.464844 49.617188 27.742188 C 50.695312 27.019531 51.792969 26.328125 52.90625 25.660156 C 54.019531 24.992188 55.148438 24.355469 56.292969 23.742188 C 57.4375 23.128906 58.59375 22.546875 59.769531 21.992188 C 60.941406 21.4375 62.128906 20.910156 63.324219 20.414062 C 64.523438 19.917969 65.734375 19.453125 66.957031 19.015625 C 68.179688 18.578125 69.410156 18.171875 70.652344 17.792969 C 71.894531 17.417969 73.144531 17.070312 74.402344 16.757812 C 75.660156 16.441406 76.925781 16.15625 78.199219 15.902344 C 79.472656 15.648438 80.75 15.429688 82.035156 15.238281 C 83.316406 15.046875 84.605469 14.890625 85.898438 14.761719 C 87.1875 14.632812 88.480469 14.539062 89.777344 14.476562 C 91.074219 14.410156 92.371094 14.378906 93.667969 14.378906 C 94.964844 14.378906 96.261719 14.410156 97.558594 14.476562 C 98.855469 14.539062 100.148438 14.632812 101.441406 14.761719 C 102.730469 14.890625 104.019531 15.046875 105.300781 15.238281 C 106.585938 15.429688 107.863281 15.648438 109.136719 15.902344 C 110.410156 16.15625 111.675781 16.441406 112.933594 16.757812 C 114.191406 17.070312 115.441406 17.417969 116.683594 17.792969 C 117.925781 18.171875 119.15625 18.578125 120.378906 19.015625 C 121.601562 19.453125 122.8125 19.917969 124.011719 20.414062 C 125.210938 20.910156 126.394531 21.4375 127.570312 21.992188 C 128.742188 22.546875 129.898438 23.128906 131.042969 23.742188 C 132.1875 24.355469 133.316406 24.992188 134.429688 25.660156 C 135.542969 26.328125 136.640625 27.019531 137.71875 27.742188 C 138.796875 28.464844 139.859375 29.210938 140.902344 29.984375 C 141.941406 30.757812 142.964844 31.554688 143.96875 32.378906 C 144.972656 33.199219 145.953125 34.046875 146.914062 34.917969 C 147.875 35.789062 148.816406 36.683594 149.734375 37.601562 C 150.652344 38.519531 151.546875 39.460938 152.417969 40.421875 C 153.289062 41.382812 154.136719 42.363281 154.960938 43.367188 C 155.78125 44.371094 156.582031 45.394531 157.351562 46.4375 C 158.125 47.476562 158.875 48.539062 159.59375 49.617188 C 160.316406 50.695312 161.007812 51.792969 161.675781 52.90625 C 162.34375 54.019531 162.984375 55.148438 163.59375 56.292969 C 164.207031 57.4375 164.789062 58.59375 165.34375 59.769531 C 165.898438 60.941406 166.425781 62.128906 166.921875 63.324219 C 167.417969 64.523438 167.886719 65.734375 168.320312 66.957031 C 168.757812 68.179688 169.167969 69.410156 169.542969 70.652344 C 169.917969 71.894531 170.265625 73.144531 170.582031 74.402344 C 170.894531 75.660156 171.179688 76.925781 171.433594 78.199219 C 171.6875 79.472656 171.910156 80.75 172.097656 82.035156 C 172.289062 83.316406 172.449219 84.605469 172.574219 85.898438 C 172.703125 87.1875 172.796875 88.480469 172.863281 89.777344 C 172.925781 91.074219 172.957031 92.371094 172.957031 93.667969 Z M 172.957031 93.667969 "/></clipPath><linearGradient x1="0.049913" gradientTransform="matrix(0.516538,0,0,0.516538,14.379809,14.379823)" y1="307.04988" x2="307.050598" gradientUnits="userSpaceOnUse" y2="0.0506075" id="fd59e4f889"><stop style="stop-color:#fec053;stop-opacity:1;" offset="0"/><stop style="stop-color:#fec053;stop-opacity:1;" offset="0.125"/><stop style="stop-color:#fec053;stop-opacity:1;" offset="0.140625"/><stop style="stop-color:#febf53;stop-opacity:1;" offset="0.144531"/><stop style="stop-color:#febf53;stop-opacity:1;" offset="0.148438"/><stop style="stop-color:#febd53;stop-opacity:1;" offset="0.152344"/><stop style="stop-color:#febb52;stop-opacity:1;" offset="0.15625"/><stop style="stop-color:#feb952;stop-opacity:1;" offset="0.160156"/><stop style="stop-color:#fdb752;stop-opacity:1;" offset="0.164062"/><stop style="stop-color:#fdb652;stop-opacity:1;" offset="0.167969"/><stop style="stop-color:#fdb451;stop-opacity:1;" offset="0.171875"/><stop style="stop-color:#fdb251;stop-opacity:1;" offset="0.175781"/><stop style="stop-color:#fdb051;stop-opacity:1;" offset="0.179687"/><stop style="stop-color:#fdae51;stop-opacity:1;" offset="0.183594"/><stop style="stop-color:#fdac50;stop-opacity:1;" offset="0.1875"/><stop style="stop-color:#fcaa50;stop-opacity:1;" offset="0.191406"/><stop style="stop-color:#fca950;stop-opacity:1;" offset="0.195312"/><stop style="stop-color:#fca750;stop-opacity:1;" offset="0.199219"/><stop style="stop-color:#fca54f;stop-opacity:1;" offset="0.203125"/><stop style="stop-color:#fca34f;stop-opacity:1;" offset="0.207031"/><stop style="stop-color:#fca14f;stop-opacity:1;" offset="0.210937"/><stop style="stop-color:#fc9f4f;stop-opacity:1;" offset="0.214844"/><stop style="stop-color:#fb9d4e;stop-opacity:1;" offset="0.21875"/><stop style="stop-color:#fb9b4e;stop-opacity:1;" offset="0.222656"/><stop style="stop-color:#fb9a4e;stop-opacity:1;" offset="0.226562"/><stop style="stop-color:#fb984e;stop-opacity:1;" offset="0.230469"/><stop style="stop-color:#fb964d;stop-opacity:1;" offset="0.234375"/><stop style="stop-color:#fb944d;stop-opacity:1;" offset="0.238281"/><stop style="stop-color:#fb924d;stop-opacity:1;" offset="0.242188"/><stop style="stop-color:#fa904d;stop-opacity:1;" offset="0.246094"/><stop style="stop-color:#fa8e4c;stop-opacity:1;" offset="0.25"/><stop style="stop-color:#fa8c4c;stop-opacity:1;" offset="0.253906"/><stop style="stop-color:#fa8b4c;stop-opacity:1;" offset="0.257812"/><stop style="stop-color:#fa894c;stop-opacity:1;" offset="0.261719"/><stop style="stop-color:#fa874b;stop-opacity:1;" offset="0.265625"/><stop style="stop-color:#fa854b;stop-opacity:1;" offset="0.269531"/><stop style="stop-color:#f9834b;stop-opacity:1;" offset="0.273437"/><stop style="stop-color:#f9814b;stop-opacity:1;" offset="0.277344"/><stop style="stop-color:#f97f4b;stop-opacity:1;" offset="0.28125"/><stop style="stop-color:#f97d4a;stop-opacity:1;" offset="0.285156"/><stop style="stop-color:#f97c4a;stop-opacity:1;" offset="0.289062"/><stop style="stop-color:#f97a4a;stop-opacity:1;" offset="0.292969"/><stop style="stop-color:#f9784a;stop-opacity:1;" offset="0.296875"/><stop style="stop-color:#f87649;stop-opacity:1;" offset="0.300781"/><stop style="stop-color:#f87449;stop-opacity:1;" offset="0.304687"/><stop style="stop-color:#f87249;stop-opacity:1;" offset="0.308594"/><stop style="stop-color:#f87049;stop-opacity:1;" offset="0.3125"/><stop style="stop-color:#f86e48;stop-opacity:1;" offset="0.316406"/><stop style="stop-color:#f86d48;stop-opacity:1;" offset="0.320312"/><stop style="stop-color:#f86b48;stop-opacity:1;" offset="0.324219"/><stop style="stop-color:#f76948;stop-opacity:1;" offset="0.328125"/><stop style="stop-color:#f76747;stop-opacity:1;" offset="0.332031"/><stop style="stop-color:#f76547;stop-opacity:1;" offset="0.335937"/><stop style="stop-color:#f76347;stop-opacity:1;" offset="0.339844"/><stop style="stop-color:#f76147;stop-opacity:1;" offset="0.34375"/><stop style="stop-color:#f75f46;stop-opacity:1;" offset="0.347656"/><stop style="stop-color:#f75e46;stop-opacity:1;" offset="0.351562"/><stop style="stop-color:#f65c46;stop-opacity:1;" offset="0.355469"/><stop style="stop-color:#f65a46;stop-opacity:1;" offset="0.359375"/><stop style="stop-color:#f65845;stop-opacity:1;" offset="0.363281"/><stop style="stop-color:#f65645;stop-opacity:1;" offset="0.367187"/><stop style="stop-color:#f65445;stop-opacity:1;" offset="0.371094"/><stop style="stop-color:#f65245;stop-opacity:1;" offset="0.375"/><stop style="stop-color:#f65044;stop-opacity:1;" offset="0.378906"/><stop style="stop-color:#f54f44;stop-opacity:1;" offset="0.382812"/><stop style="stop-color:#f54d44;stop-opacity:1;" offset="0.386719"/><stop style="stop-color:#f54b44;stop-opacity:1;" offset="0.390625"/><stop style="stop-color:#f54943;stop-opacity:1;" offset="0.394531"/><stop style="stop-color:#f54743;stop-opacity:1;" offset="0.398437"/><stop style="stop-color:#f54543;stop-opacity:1;" offset="0.402344"/><stop style="stop-color:#f54343;stop-opacity:1;" offset="0.40625"/><stop style="stop-color:#f54142;stop-opacity:1;" offset="0.410156"/><stop style="stop-color:#f44042;stop-opacity:1;" offset="0.414062"/><stop style="stop-color:#f43e42;stop-opacity:1;" offset="0.417969"/><stop style="stop-color:#f43c42;stop-opacity:1;" offset="0.421875"/><stop style="stop-color:#f43a41;stop-opacity:1;" offset="0.425781"/><stop style="stop-color:#f43841;stop-opacity:1;" offset="0.429687"/><stop style="stop-color:#f43641;stop-opacity:1;" offset="0.433594"/><stop style="stop-color:#f43441;stop-opacity:1;" offset="0.4375"/><stop style="stop-color:#f33240;stop-opacity:1;" offset="0.441406"/><stop style="stop-color:#f33140;stop-opacity:1;" offset="0.445312"/><stop style="stop-color:#f32f40;stop-opacity:1;" offset="0.449219"/><stop style="stop-color:#f32d40;stop-opacity:1;" offset="0.453125"/><stop style="stop-color:#f32b3f;stop-opacity:1;" offset="0.457031"/><stop style="stop-color:#f3293f;stop-opacity:1;" offset="0.460937"/><stop style="stop-color:#f3273f;stop-opacity:1;" offset="0.464844"/><stop style="stop-color:#f2253f;stop-opacity:1;" offset="0.46875"/><stop style="stop-color:#f2233e;stop-opacity:1;" offset="0.472656"/><stop style="stop-color:#f2223e;stop-opacity:1;" offset="0.476562"/><stop style="stop-color:#f1213f;stop-opacity:1;" offset="0.480469"/><stop style="stop-color:#f02041;stop-opacity:1;" offset="0.484375"/><stop style="stop-color:#ef2043;stop-opacity:1;" offset="0.488281"/><stop style="stop-color:#ee2046;stop-opacity:1;" offset="0.492187"/><stop style="stop-color:#ec2048;stop-opacity:1;" offset="0.496094"/><stop style="stop-color:#eb204a;stop-opacity:1;" offset="0.5"/><stop style="stop-color:#ea204d;stop-opacity:1;" offset="0.503906"/><stop style="stop-color:#e8204f;stop-opacity:1;" offset="0.507812"/><stop style="stop-color:#e72052;stop-opacity:1;" offset="0.511719"/><stop style="stop-color:#e62054;stop-opacity:1;" offset="0.515625"/><stop style="stop-color:#e42057;stop-opacity:1;" offset="0.519531"/><stop style="stop-color:#e32059;stop-opacity:1;" offset="0.523437"/><stop style="stop-color:#e2205b;stop-opacity:1;" offset="0.527344"/><stop style="stop-color:#e0205e;stop-opacity:1;" offset="0.53125"/><stop style="stop-color:#df2060;stop-opacity:1;" offset="0.535156"/><stop style="stop-color:#de2063;stop-opacity:1;" offset="0.539062"/><stop style="stop-color:#dc2065;stop-opacity:1;" offset="0.542969"/><stop style="stop-color:#db2068;stop-opacity:1;" offset="0.546875"/><stop style="stop-color:#d9206a;stop-opacity:1;" offset="0.550781"/><stop style="stop-color:#d8206d;stop-opacity:1;" offset="0.554687"/><stop style="stop-color:#d7206f;stop-opacity:1;" offset="0.558594"/><stop style="stop-color:#d52071;stop-opacity:1;" offset="0.5625"/><stop style="stop-color:#d41f74;stop-opacity:1;" offset="0.566406"/><stop style="stop-color:#d31f76;stop-opacity:1;" offset="0.570312"/><stop style="stop-color:#d11f79;stop-opacity:1;" offset="0.574219"/><stop style="stop-color:#d01f7b;stop-opacity:1;" offset="0.578125"/><stop style="stop-color:#cf1f7e;stop-opacity:1;" offset="0.582031"/><stop style="stop-color:#cd1f80;stop-opacity:1;" offset="0.585938"/><stop style="stop-color:#cc1f82;stop-opacity:1;" offset="0.589844"/><stop style="stop-color:#cb1f85;stop-opacity:1;" offset="0.59375"/><stop style="stop-color:#c91f87;stop-opacity:1;" offset="0.597656"/><stop style="stop-color:#c81f8a;stop-opacity:1;" offset="0.601562"/><stop style="stop-color:#c71f8c;stop-opacity:1;" offset="0.605469"/><stop style="stop-color:#c51f8f;stop-opacity:1;" offset="0.609375"/><stop style="stop-color:#c41f91;stop-opacity:1;" offset="0.613281"/><stop style="stop-color:#c21f93;stop-opacity:1;" offset="0.617187"/><stop style="stop-color:#c11f96;stop-opacity:1;" offset="0.621094"/><stop style="stop-color:#c01f98;stop-opacity:1;" offset="0.625"/><stop style="stop-color:#be1f9b;stop-opacity:1;" offset="0.628906"/><stop style="stop-color:#bd1f9d;stop-opacity:1;" offset="0.632812"/><stop style="stop-color:#bc1fa0;stop-opacity:1;" offset="0.636719"/><stop style="stop-color:#ba1fa2;stop-opacity:1;" offset="0.640625"/><stop style="stop-color:#b91fa4;stop-opacity:1;" offset="0.644531"/><stop style="stop-color:#b81fa7;stop-opacity:1;" offset="0.648437"/><stop style="stop-color:#b620a8;stop-opacity:1;" offset="0.652344"/><stop style="stop-color:#b420a9;stop-opacity:1;" offset="0.65625"/><stop style="stop-color:#b221aa;stop-opacity:1;" offset="0.660156"/><stop style="stop-color:#b022ab;stop-opacity:1;" offset="0.664062"/><stop style="stop-color:#ae23ac;stop-opacity:1;" offset="0.667969"/><stop style="stop-color:#ac24ad;stop-opacity:1;" offset="0.671875"/><stop style="stop-color:#aa25ae;stop-opacity:1;" offset="0.675781"/><stop style="stop-color:#a826af;stop-opacity:1;" offset="0.679687"/><stop style="stop-color:#a727b0;stop-opacity:1;" offset="0.683594"/><stop style="stop-color:#a528b0;stop-opacity:1;" offset="0.6875"/><stop style="stop-color:#a329b1;stop-opacity:1;" offset="0.691406"/><stop style="stop-color:#a12ab2;stop-opacity:1;" offset="0.695312"/><stop style="stop-color:#9f2bb3;stop-opacity:1;" offset="0.699219"/><stop style="stop-color:#9d2cb4;stop-opacity:1;" offset="0.703125"/><stop style="stop-color:#9b2db5;stop-opacity:1;" offset="0.707031"/><stop style="stop-color:#992eb6;stop-opacity:1;" offset="0.710938"/><stop style="stop-color:#972fb7;stop-opacity:1;" offset="0.714844"/><stop style="stop-color:#9530b8;stop-opacity:1;" offset="0.71875"/><stop style="stop-color:#9331b8;stop-opacity:1;" offset="0.722656"/><stop style="stop-color:#9132b9;stop-opacity:1;" offset="0.726562"/><stop style="stop-color:#8f33ba;stop-opacity:1;" offset="0.730469"/><stop style="stop-color:#8e34bb;stop-opacity:1;" offset="0.734375"/><stop style="stop-color:#8c35bc;stop-opacity:1;" offset="0.738281"/><stop style="stop-color:#8a36bd;stop-opacity:1;" offset="0.742187"/><stop style="stop-color:#8837be;stop-opacity:1;" offset="0.746094"/><stop style="stop-color:#8638bf;stop-opacity:1;" offset="0.75"/><stop style="stop-color:#8439bf;stop-opacity:1;" offset="0.753906"/><stop style="stop-color:#823ac0;stop-opacity:1;" offset="0.757812"/><stop style="stop-color:#803ac1;stop-opacity:1;" offset="0.761719"/><stop style="stop-color:#7e3bc2;stop-opacity:1;" offset="0.765625"/><stop style="stop-color:#7c3cc3;stop-opacity:1;" offset="0.769531"/><stop style="stop-color:#7a3dc4;stop-opacity:1;" offset="0.773437"/><stop style="stop-color:#783ec5;stop-opacity:1;" offset="0.777344"/><stop style="stop-color:#763fc6;stop-opacity:1;" offset="0.78125"/><stop style="stop-color:#7440c7;stop-opacity:1;" offset="0.785156"/><stop style="stop-color:#7341c7;stop-opacity:1;" offset="0.789062"/><stop style="stop-color:#7142c8;stop-opacity:1;" offset="0.792969"/><stop style="stop-color:#6f43c9;stop-opacity:1;" offset="0.796875"/><stop style="stop-color:#6d44ca;stop-opacity:1;" offset="0.800781"/><stop style="stop-color:#6b45cb;stop-opacity:1;" offset="0.804688"/><stop style="stop-color:#6946cc;stop-opacity:1;" offset="0.808594"/><stop style="stop-color:#6747cd;stop-opacity:1;" offset="0.8125"/><stop style="stop-color:#6548ce;stop-opacity:1;" offset="0.816406"/><stop style="stop-color:#6349cf;stop-opacity:1;" offset="0.820312"/><stop style="stop-color:#614acf;stop-opacity:1;" offset="0.824219"/><stop style="stop-color:#5f4bd0;stop-opacity:1;" offset="0.828125"/><stop style="stop-color:#5d4cd1;stop-opacity:1;" offset="0.832031"/><stop style="stop-color:#5b4dd2;stop-opacity:1;" offset="0.835938"/><stop style="stop-color:#5a4ed3;stop-opacity:1;" offset="0.839844"/><stop style="stop-color:#584fd4;stop-opacity:1;" offset="0.84375"/><stop style="stop-color:#5650d5;stop-opacity:1;" offset="0.847656"/><stop style="stop-color:#5451d6;stop-opacity:1;" offset="0.851562"/><stop style="stop-color:#5351d6;stop-opacity:1;" offset="0.859375"/><stop style="stop-color:#5351d6;stop-opacity:1;" offset="0.875"/><stop style="stop-color:#5351d6;stop-opacity:1;" offset="1"/></linearGradient></defs><g id="c71466531f"><g clip-rule="nonzero" clip-path="url(#a50b1b6e17)"><g clip-rule="nonzero" clip-path="url(#50176e79dd)"><path style=" stroke:none;fill-rule:nonzero;fill:url(#fd59e4f889);" d="M 14.378906 14.378906 L 14.378906 172.957031 L 172.957031 172.957031 L 172.957031 14.378906 Z M 14.378906 14.378906 "/></g></g><path style=" stroke:none;fill-rule:nonzero;fill:#ffffff;fill-opacity:1;" d="M 114.941406 141.519531 L 72.671875 141.519531 C 58.015625 141.519531 46.09375 129.597656 46.09375 114.941406 L 46.09375 72.671875 C 46.09375 58.015625 58.015625 46.09375 72.671875 46.09375 L 114.941406 46.09375 C 129.597656 46.09375 141.519531 58.015625 141.519531 72.671875 L 141.519531 114.941406 C 141.519531 129.597656 129.597656 141.519531 114.941406 141.519531 Z M 72.671875 52.554688 C 61.578125 52.554688 52.554688 61.578125 52.554688 72.671875 L 52.554688 114.941406 C 52.554688 126.035156 61.578125 135.058594 72.671875 135.058594 L 114.941406 135.058594 C 126.035156 135.058594 135.058594 126.035156 135.058594 114.941406 L 135.058594 72.671875 C 135.058594 61.578125 126.035156 52.554688 114.941406 52.554688 Z M 72.671875 52.554688 "/><path style=" stroke:none;fill-rule:nonzero;fill:#ffffff;fill-opacity:1;" d="M 93.808594 117.441406 C 80.777344 117.441406 70.175781 106.839844 70.175781 93.808594 C 70.175781 80.777344 80.777344 70.175781 93.808594 70.175781 C 106.839844 70.175781 117.441406 80.777344 117.441406 93.808594 C 117.441406 106.839844 106.839844 117.441406 93.808594 117.441406 Z M 93.808594 76.632812 C 84.339844 76.632812 76.632812 84.335938 76.632812 93.808594 C 76.632812 103.277344 84.339844 110.980469 93.808594 110.980469 C 103.277344 110.980469 110.984375 103.277344 110.984375 93.808594 C 110.984375 84.335938 103.277344 76.632812 93.808594 76.632812 Z M 93.808594 76.632812 "/></g></svg>