<svg xmlns="http://www.w3.org/2000/svg" xmlns:xlink="http://www.w3.org/1999/xlink" width="250" zoomAndPan="magnify" viewBox="0 0 187.5 187.499992" height="250" preserveAspectRatio="xMidYMid meet" version="1.2"><defs><clipPath id="82e1541468"><path d="M 18.699219 18.699219 L 165 18.699219 L 165 165 L 18.699219 165 Z M 18.699219 18.699219 "/></clipPath><clipPath id="1d98d6fe51"><path d="M 22 22 L 168.300781 22 L 168.300781 168.300781 L 22 168.300781 Z M 22 22 "/></clipPath></defs><g id="5c17c5c34e"><g clip-rule="nonzero" clip-path="url(#82e1541468)"><path style=" stroke:none;fill-rule:nonzero;fill:#2beae4;fill-opacity:1;" d="M 164.230469 91.464844 C 164.230469 92.65625 164.203125 93.847656 164.144531 95.035156 C 164.085938 96.226562 163.996094 97.414062 163.878906 98.597656 C 163.761719 99.78125 163.617188 100.964844 163.441406 102.140625 C 163.269531 103.320312 163.066406 104.492188 162.832031 105.660156 C 162.601562 106.828125 162.339844 107.992188 162.050781 109.144531 C 161.761719 110.300781 161.441406 111.449219 161.097656 112.585938 C 160.75 113.726562 160.378906 114.859375 159.976562 115.980469 C 159.574219 117.101562 159.148438 118.210938 158.691406 119.3125 C 158.234375 120.410156 157.753906 121.5 157.246094 122.578125 C 156.734375 123.652344 156.199219 124.714844 155.636719 125.765625 C 155.078125 126.816406 154.488281 127.851562 153.878906 128.875 C 153.265625 129.894531 152.628906 130.902344 151.96875 131.890625 C 151.304688 132.882812 150.621094 133.855469 149.910156 134.8125 C 149.203125 135.769531 148.46875 136.707031 147.714844 137.628906 C 146.957031 138.546875 146.179688 139.449219 145.378906 140.332031 C 144.582031 141.214844 143.761719 142.074219 142.917969 142.917969 C 142.074219 143.761719 141.214844 144.582031 140.332031 145.378906 C 139.449219 146.179688 138.546875 146.957031 137.628906 147.714844 C 136.707031 148.46875 135.769531 149.203125 134.8125 149.910156 C 133.855469 150.621094 132.882812 151.304688 131.890625 151.96875 C 130.902344 152.628906 129.894531 153.265625 128.875 153.878906 C 127.851562 154.488281 126.816406 155.078125 125.765625 155.636719 C 124.714844 156.199219 123.652344 156.734375 122.578125 157.246094 C 121.5 157.753906 120.410156 158.234375 119.3125 158.691406 C 118.210938 159.148438 117.101562 159.574219 115.980469 159.976562 C 114.859375 160.378906 113.726562 160.75 112.585938 161.097656 C 111.449219 161.441406 110.300781 161.761719 109.144531 162.050781 C 107.992188 162.339844 106.828125 162.601562 105.660156 162.832031 C 104.492188 163.066406 103.320312 163.269531 102.140625 163.441406 C 100.964844 163.617188 99.78125 163.761719 98.597656 163.878906 C 97.414062 163.996094 96.226562 164.085938 95.035156 164.144531 C 93.847656 164.203125 92.65625 164.230469 91.464844 164.230469 C 90.273438 164.230469 89.085938 164.203125 87.894531 164.144531 C 86.707031 164.085938 85.519531 163.996094 84.332031 163.878906 C 83.148438 163.761719 81.964844 163.617188 80.789062 163.441406 C 79.609375 163.269531 78.4375 163.066406 77.269531 162.832031 C 76.101562 162.601562 74.941406 162.339844 73.785156 162.050781 C 72.628906 161.761719 71.480469 161.441406 70.34375 161.097656 C 69.203125 160.75 68.074219 160.378906 66.953125 159.976562 C 65.832031 159.574219 64.71875 159.148438 63.621094 158.691406 C 62.519531 158.234375 61.429688 157.753906 60.355469 157.246094 C 59.277344 156.734375 58.214844 156.199219 57.164062 155.636719 C 56.113281 155.078125 55.078125 154.488281 54.054688 153.878906 C 53.035156 153.265625 52.027344 152.628906 51.039062 151.96875 C 50.050781 151.304688 49.074219 150.621094 48.117188 149.910156 C 47.164062 149.203125 46.222656 148.46875 45.304688 147.714844 C 44.382812 146.957031 43.480469 146.179688 42.597656 145.378906 C 41.71875 144.582031 40.855469 143.761719 40.011719 142.917969 C 39.171875 142.074219 38.347656 141.214844 37.550781 140.332031 C 36.75 139.449219 35.972656 138.546875 35.21875 137.628906 C 34.460938 136.707031 33.730469 135.769531 33.019531 134.8125 C 32.308594 133.855469 31.625 132.882812 30.964844 131.890625 C 30.300781 130.902344 29.664062 129.894531 29.050781 128.875 C 28.441406 127.851562 27.851562 126.816406 27.292969 125.765625 C 26.730469 124.714844 26.195312 123.652344 25.6875 122.578125 C 25.175781 121.5 24.695312 120.410156 24.238281 119.3125 C 23.785156 118.210938 23.355469 117.101562 22.953125 115.980469 C 22.550781 114.859375 22.179688 113.726562 21.832031 112.585938 C 21.488281 111.449219 21.171875 110.300781 20.878906 109.144531 C 20.589844 107.992188 20.332031 106.828125 20.097656 105.660156 C 19.867188 104.492188 19.664062 103.320312 19.488281 102.140625 C 19.3125 100.964844 19.167969 99.78125 19.050781 98.597656 C 18.933594 97.414062 18.847656 96.226562 18.789062 95.035156 C 18.730469 93.847656 18.699219 92.65625 18.699219 91.464844 C 18.699219 90.273438 18.730469 89.085938 18.789062 87.894531 C 18.847656 86.707031 18.933594 85.519531 19.050781 84.332031 C 19.167969 83.148438 19.3125 81.964844 19.488281 80.789062 C 19.664062 79.609375 19.867188 78.4375 20.097656 77.269531 C 20.332031 76.101562 20.589844 74.941406 20.878906 73.785156 C 21.171875 72.628906 21.488281 71.480469 21.832031 70.34375 C 22.179688 69.203125 22.550781 68.074219 22.953125 66.953125 C 23.355469 65.832031 23.785156 64.71875 24.238281 63.621094 C 24.695312 62.519531 25.175781 61.429688 25.6875 60.355469 C 26.195312 59.277344 26.730469 58.214844 27.292969 57.164062 C 27.851562 56.113281 28.441406 55.078125 29.050781 54.054688 C 29.664062 53.035156 30.300781 52.027344 30.964844 51.039062 C 31.625 50.050781 32.308594 49.074219 33.019531 48.117188 C 33.730469 47.164062 34.460938 46.222656 35.21875 45.304688 C 35.972656 44.382812 36.75 43.480469 37.550781 42.597656 C 38.347656 41.71875 39.171875 40.855469 40.011719 40.011719 C 40.855469 39.171875 41.71875 38.347656 42.597656 37.550781 C 43.480469 36.75 44.382812 35.972656 45.304688 35.21875 C 46.222656 34.460938 47.164062 33.730469 48.117188 33.019531 C 49.074219 32.308594 50.050781 31.625 51.039062 30.964844 C 52.027344 30.300781 53.035156 29.664062 54.054688 29.050781 C 55.078125 28.441406 56.113281 27.851562 57.164062 27.292969 C 58.214844 26.730469 59.277344 26.195312 60.355469 25.6875 C 61.429688 25.175781 62.519531 24.695312 63.621094 24.238281 C 64.71875 23.785156 65.832031 23.355469 66.953125 22.953125 C 68.074219 22.550781 69.203125 22.179688 70.34375 21.832031 C 71.480469 21.488281 72.628906 21.171875 73.785156 20.878906 C 74.941406 20.589844 76.101562 20.332031 77.269531 20.097656 C 78.4375 19.867188 79.609375 19.664062 80.789062 19.488281 C 81.964844 19.3125 83.148438 19.167969 84.332031 19.050781 C 85.519531 18.933594 86.707031 18.847656 87.894531 18.789062 C 89.085938 18.730469 90.273438 18.699219 91.464844 18.699219 C 92.65625 18.699219 93.847656 18.730469 95.035156 18.789062 C 96.226562 18.847656 97.414062 18.933594 98.597656 19.050781 C 99.78125 19.167969 100.964844 19.3125 102.140625 19.488281 C 103.320312 19.664062 104.492188 19.867188 105.660156 20.097656 C 106.828125 20.332031 107.992188 20.589844 109.144531 20.878906 C 110.300781 21.171875 111.449219 21.488281 112.585938 21.832031 C 113.726562 22.179688 114.859375 22.550781 115.980469 22.953125 C 117.101562 23.355469 118.210938 23.785156 119.3125 24.238281 C 120.410156 24.695312 121.5 25.175781 122.578125 25.6875 C 123.652344 26.195312 124.714844 26.730469 125.765625 27.292969 C 126.816406 27.851562 127.851562 28.441406 128.875 29.050781 C 129.894531 29.664062 130.902344 30.300781 131.890625 30.964844 C 132.882812 31.625 133.855469 32.308594 134.8125 33.019531 C 135.769531 33.730469 136.707031 34.460938 137.628906 35.21875 C 138.546875 35.972656 139.449219 36.75 140.332031 37.550781 C 141.214844 38.347656 142.074219 39.171875 142.917969 40.011719 C 143.761719 40.855469 144.582031 41.71875 145.378906 42.597656 C 146.179688 43.480469 146.957031 44.382812 147.714844 45.304688 C 148.46875 46.222656 149.203125 47.164062 149.910156 48.117188 C 150.621094 49.074219 151.304688 50.050781 151.96875 51.039062 C 152.628906 52.027344 153.265625 53.035156 153.878906 54.054688 C 154.488281 55.078125 155.078125 56.113281 155.636719 57.164062 C 156.199219 58.214844 156.734375 59.277344 157.246094 60.355469 C 157.753906 61.429688 158.234375 62.519531 158.691406 63.621094 C 159.148438 64.71875 159.574219 65.832031 159.976562 66.953125 C 160.378906 68.074219 160.75 69.203125 161.097656 70.34375 C 161.441406 71.480469 161.761719 72.628906 162.050781 73.785156 C 162.339844 74.941406 162.601562 76.101562 162.832031 77.269531 C 163.066406 78.4375 163.269531 79.609375 163.441406 80.789062 C 163.617188 81.964844 163.761719 83.148438 163.878906 84.332031 C 163.996094 85.519531 164.085938 86.707031 164.144531 87.894531 C 164.203125 89.085938 164.230469 90.273438 164.230469 91.464844 Z M 164.230469 91.464844 "/></g><g clip-rule="nonzero" clip-path="url(#1d98d6fe51)"><path style=" stroke:none;fill-rule:nonzero;fill:#fe2b54;fill-opacity:1;" d="M 168.300781 95.535156 C 168.300781 96.726562 168.273438 97.917969 168.214844 99.105469 C 168.15625 100.296875 168.066406 101.484375 167.949219 102.667969 C 167.835938 103.851562 167.6875 105.035156 167.511719 106.214844 C 167.339844 107.390625 167.136719 108.5625 166.902344 109.730469 C 166.671875 110.898438 166.410156 112.0625 166.121094 113.214844 C 165.832031 114.371094 165.511719 115.519531 165.167969 116.660156 C 164.820312 117.796875 164.449219 118.929688 164.046875 120.050781 C 163.644531 121.171875 163.21875 122.28125 162.761719 123.382812 C 162.304688 124.480469 161.824219 125.570312 161.316406 126.648438 C 160.804688 127.722656 160.269531 128.785156 159.710938 129.835938 C 159.148438 130.886719 158.5625 131.921875 157.949219 132.945312 C 157.335938 133.964844 156.699219 134.972656 156.039062 135.960938 C 155.375 136.953125 154.691406 137.925781 153.980469 138.882812 C 153.273438 139.839844 152.539062 140.777344 151.785156 141.699219 C 151.027344 142.617188 150.25 143.519531 149.453125 144.402344 C 148.652344 145.285156 147.832031 146.148438 146.988281 146.988281 C 146.148438 147.832031 145.285156 148.652344 144.402344 149.453125 C 143.519531 150.25 142.617188 151.027344 141.699219 151.785156 C 140.777344 152.539062 139.839844 153.273438 138.882812 153.980469 C 137.925781 154.691406 136.953125 155.375 135.960938 156.039062 C 134.972656 156.699219 133.964844 157.335938 132.945312 157.949219 C 131.921875 158.5625 130.886719 159.148438 129.835938 159.710938 C 128.785156 160.269531 127.722656 160.804688 126.648438 161.316406 C 125.570312 161.824219 124.480469 162.304688 123.382812 162.761719 C 122.28125 163.21875 121.171875 163.644531 120.050781 164.046875 C 118.929688 164.449219 117.796875 164.820312 116.660156 165.167969 C 115.519531 165.511719 114.371094 165.832031 113.214844 166.121094 C 112.0625 166.410156 110.898438 166.671875 109.730469 166.902344 C 108.5625 167.136719 107.390625 167.339844 106.214844 167.511719 C 105.035156 167.6875 103.851562 167.835938 102.667969 167.949219 C 101.484375 168.066406 100.296875 168.15625 99.105469 168.214844 C 97.917969 168.273438 96.726562 168.300781 95.535156 168.300781 C 94.34375 168.300781 93.15625 168.273438 91.964844 168.214844 C 90.777344 168.15625 89.589844 168.066406 88.402344 167.949219 C 87.21875 167.835938 86.039062 167.6875 84.859375 167.511719 C 83.679688 167.339844 82.507812 167.136719 81.339844 166.902344 C 80.171875 166.671875 79.011719 166.410156 77.855469 166.121094 C 76.699219 165.832031 75.554688 165.511719 74.414062 165.167969 C 73.273438 164.820312 72.144531 164.449219 71.023438 164.046875 C 69.902344 163.644531 68.789062 163.21875 67.691406 162.761719 C 66.589844 162.304688 65.5 161.824219 64.425781 161.316406 C 63.347656 160.804688 62.285156 160.269531 61.234375 159.710938 C 60.183594 159.148438 59.148438 158.5625 58.128906 157.949219 C 57.105469 157.335938 56.101562 156.699219 55.109375 156.039062 C 54.121094 155.375 53.144531 154.691406 52.191406 153.980469 C 51.234375 153.273438 50.292969 152.539062 49.375 151.785156 C 48.453125 151.027344 47.550781 150.25 46.671875 149.453125 C 45.789062 148.652344 44.925781 147.832031 44.082031 146.988281 C 43.242188 146.148438 42.421875 145.285156 41.621094 144.402344 C 40.820312 143.519531 40.042969 142.617188 39.289062 141.699219 C 38.53125 140.777344 37.800781 139.839844 37.089844 138.882812 C 36.382812 137.925781 35.695312 136.953125 35.035156 135.960938 C 34.371094 134.972656 33.734375 133.964844 33.125 132.945312 C 32.511719 131.921875 31.925781 130.886719 31.363281 129.835938 C 30.800781 128.785156 30.265625 127.722656 29.757812 126.648438 C 29.246094 125.570312 28.765625 124.480469 28.308594 123.382812 C 27.855469 122.28125 27.425781 121.171875 27.023438 120.050781 C 26.625 118.929688 26.25 117.796875 25.902344 116.660156 C 25.558594 115.519531 25.242188 114.371094 24.953125 113.214844 C 24.664062 112.0625 24.402344 110.898438 24.167969 109.730469 C 23.9375 108.5625 23.734375 107.390625 23.558594 106.214844 C 23.382812 105.035156 23.238281 103.851562 23.121094 102.667969 C 23.003906 101.484375 22.917969 100.296875 22.859375 99.105469 C 22.800781 97.917969 22.769531 96.726562 22.769531 95.535156 C 22.769531 94.34375 22.800781 93.15625 22.859375 91.964844 C 22.917969 90.777344 23.003906 89.589844 23.121094 88.402344 C 23.238281 87.21875 23.382812 86.039062 23.558594 84.859375 C 23.734375 83.679688 23.9375 82.507812 24.167969 81.339844 C 24.402344 80.171875 24.664062 79.011719 24.953125 77.855469 C 25.242188 76.699219 25.558594 75.554688 25.902344 74.414062 C 26.25 73.273438 26.625 72.144531 27.023438 71.023438 C 27.425781 69.902344 27.855469 68.789062 28.308594 67.691406 C 28.765625 66.589844 29.246094 65.5 29.757812 64.425781 C 30.265625 63.347656 30.800781 62.285156 31.363281 61.234375 C 31.925781 60.183594 32.511719 59.148438 33.125 58.128906 C 33.734375 57.105469 34.371094 56.101562 35.035156 55.109375 C 35.695312 54.121094 36.382812 53.144531 37.089844 52.191406 C 37.800781 51.234375 38.53125 50.292969 39.289062 49.375 C 40.042969 48.453125 40.820312 47.550781 41.621094 46.671875 C 42.421875 45.789062 43.242188 44.925781 44.082031 44.082031 C 44.925781 43.242188 45.789062 42.421875 46.671875 41.621094 C 47.550781 40.820312 48.453125 40.042969 49.375 39.289062 C 50.292969 38.53125 51.234375 37.800781 52.191406 37.089844 C 53.144531 36.382812 54.121094 35.695312 55.109375 35.035156 C 56.101562 34.371094 57.105469 33.734375 58.128906 33.125 C 59.148438 32.511719 60.183594 31.925781 61.234375 31.363281 C 62.285156 30.800781 63.347656 30.265625 64.425781 29.757812 C 65.5 29.246094 66.589844 28.765625 67.691406 28.308594 C 68.789062 27.855469 69.902344 27.425781 71.023438 27.023438 C 72.144531 26.625 73.273438 26.25 74.414062 25.902344 C 75.554688 25.558594 76.699219 25.242188 77.855469 24.953125 C 79.011719 24.664062 80.171875 24.402344 81.339844 24.167969 C 82.507812 23.9375 83.679688 23.734375 84.859375 23.558594 C 86.039062 23.382812 87.21875 23.238281 88.402344 23.121094 C 89.589844 23.003906 90.777344 22.917969 91.964844 22.859375 C 93.15625 22.800781 94.34375 22.769531 95.535156 22.769531 C 96.726562 22.769531 97.917969 22.800781 99.105469 22.859375 C 100.296875 22.917969 101.484375 23.003906 102.667969 23.121094 C 103.851562 23.238281 105.035156 23.382812 106.214844 23.558594 C 107.390625 23.734375 108.5625 23.9375 109.730469 24.167969 C 110.898438 24.402344 112.0625 24.664062 113.214844 24.953125 C 114.371094 25.242188 115.519531 25.558594 116.660156 25.902344 C 117.796875 26.25 118.929688 26.625 120.050781 27.023438 C 121.171875 27.425781 122.28125 27.855469 123.382812 28.308594 C 124.480469 28.765625 125.570312 29.246094 126.648438 29.757812 C 127.722656 30.265625 128.785156 30.800781 129.835938 31.363281 C 130.886719 31.925781 131.921875 32.511719 132.945312 33.125 C 133.964844 33.734375 134.972656 34.371094 135.960938 35.035156 C 136.953125 35.695312 137.925781 36.382812 138.882812 37.089844 C 139.839844 37.800781 140.777344 38.53125 141.699219 39.289062 C 142.617188 40.042969 143.519531 40.820312 144.402344 41.621094 C 145.285156 42.421875 146.148438 43.242188 146.988281 44.082031 C 147.832031 44.925781 148.652344 45.789062 149.453125 46.671875 C 150.25 47.550781 151.027344 48.453125 151.785156 49.375 C 152.539062 50.292969 153.273438 51.234375 153.980469 52.191406 C 154.691406 53.144531 155.375 54.121094 156.039062 55.109375 C 156.699219 56.101562 157.335938 57.105469 157.949219 58.128906 C 158.5625 59.148438 159.148438 60.183594 159.710938 61.234375 C 160.269531 62.285156 160.804688 63.347656 161.316406 64.425781 C 161.824219 65.5 162.304688 66.589844 162.761719 67.691406 C 163.21875 68.789062 163.644531 69.902344 164.046875 71.023438 C 164.449219 72.144531 164.820312 73.273438 165.167969 74.414062 C 165.511719 75.554688 165.832031 76.699219 166.121094 77.855469 C 166.410156 79.011719 166.671875 80.171875 166.902344 81.339844 C 167.136719 82.507812 167.339844 83.679688 167.511719 84.859375 C 167.6875 86.039062 167.835938 87.21875 167.949219 88.402344 C 168.066406 89.589844 168.15625 90.777344 168.214844 91.964844 C 168.273438 93.15625 168.300781 94.34375 168.300781 95.535156 Z M 168.300781 95.535156 "/></g><path style=" stroke:none;fill-rule:nonzero;fill:#231f20;fill-opacity:1;" d="M 166.265625 93.5 C 166.265625 94.691406 166.238281 95.882812 166.179688 97.070312 C 166.121094 98.261719 166.03125 99.449219 165.914062 100.632812 C 165.796875 101.816406 165.652344 103 165.476562 104.175781 C 165.304688 105.355469 165.101562 106.527344 164.867188 107.695312 C 164.636719 108.863281 164.375 110.027344 164.085938 111.179688 C 163.796875 112.335938 163.476562 113.484375 163.132812 114.625 C 162.785156 115.761719 162.414062 116.894531 162.011719 118.015625 C 161.609375 119.136719 161.183594 120.246094 160.726562 121.347656 C 160.269531 122.445312 159.789062 123.535156 159.28125 124.613281 C 158.769531 125.6875 158.234375 126.75 157.671875 127.800781 C 157.113281 128.851562 156.527344 129.886719 155.914062 130.910156 C 155.300781 131.929688 154.664062 132.9375 154.003906 133.925781 C 153.339844 134.917969 152.65625 135.890625 151.945312 136.847656 C 151.238281 137.804688 150.503906 138.742188 149.75 139.664062 C 148.992188 140.582031 148.214844 141.484375 147.417969 142.367188 C 146.617188 143.25 145.796875 144.109375 144.953125 144.953125 C 144.109375 145.796875 143.25 146.617188 142.367188 147.417969 C 141.484375 148.214844 140.582031 148.992188 139.664062 149.75 C 138.742188 150.503906 137.804688 151.238281 136.847656 151.945312 C 135.890625 152.65625 134.917969 153.339844 133.925781 154.003906 C 132.9375 154.664062 131.929688 155.300781 130.910156 155.914062 C 129.886719 156.527344 128.851562 157.113281 127.800781 157.671875 C 126.75 158.234375 125.6875 158.769531 124.613281 159.28125 C 123.535156 159.789062 122.445312 160.269531 121.347656 160.726562 C 120.246094 161.183594 119.136719 161.609375 118.015625 162.011719 C 116.894531 162.414062 115.761719 162.785156 114.625 163.132812 C 113.484375 163.476562 112.335938 163.796875 111.179688 164.085938 C 110.027344 164.375 108.863281 164.636719 107.695312 164.867188 C 106.527344 165.101562 105.355469 165.304688 104.175781 165.476562 C 103 165.652344 101.816406 165.796875 100.632812 165.914062 C 99.449219 166.03125 98.261719 166.121094 97.070312 166.179688 C 95.882812 166.238281 94.691406 166.265625 93.5 166.265625 C 92.308594 166.265625 91.121094 166.238281 89.929688 166.179688 C 88.742188 166.121094 87.554688 166.03125 86.367188 165.914062 C 85.183594 165.796875 84 165.652344 82.824219 165.476562 C 81.644531 165.304688 80.472656 165.101562 79.304688 164.867188 C 78.136719 164.636719 76.976562 164.375 75.820312 164.085938 C 74.664062 163.796875 73.519531 163.476562 72.378906 163.132812 C 71.238281 162.785156 70.109375 162.414062 68.988281 162.011719 C 67.867188 161.609375 66.753906 161.183594 65.65625 160.726562 C 64.554688 160.269531 63.464844 159.789062 62.390625 159.28125 C 61.3125 158.769531 60.25 158.234375 59.199219 157.671875 C 58.148438 157.113281 57.113281 156.527344 56.09375 155.914062 C 55.070312 155.300781 54.066406 154.664062 53.074219 154.003906 C 52.085938 153.339844 51.109375 152.65625 50.15625 151.945312 C 49.199219 151.238281 48.257812 150.503906 47.339844 149.75 C 46.417969 148.992188 45.515625 148.214844 44.632812 147.417969 C 43.753906 146.617188 42.890625 145.796875 42.046875 144.953125 C 41.207031 144.109375 40.386719 143.25 39.585938 142.367188 C 38.785156 141.484375 38.007812 140.582031 37.253906 139.664062 C 36.496094 138.742188 35.765625 137.804688 35.054688 136.847656 C 34.347656 135.890625 33.660156 134.917969 33 133.925781 C 32.335938 132.9375 31.699219 131.929688 31.089844 130.910156 C 30.476562 129.886719 29.890625 128.851562 29.328125 127.800781 C 28.765625 126.75 28.230469 125.6875 27.722656 124.613281 C 27.210938 123.535156 26.730469 122.445312 26.273438 121.347656 C 25.820312 120.246094 25.390625 119.136719 24.988281 118.015625 C 24.585938 116.894531 24.214844 115.761719 23.867188 114.625 C 23.523438 113.484375 23.207031 112.335938 22.917969 111.179688 C 22.625 110.027344 22.367188 108.863281 22.132812 107.695312 C 21.902344 106.527344 21.699219 105.355469 21.523438 104.175781 C 21.347656 103 21.203125 101.816406 21.085938 100.632812 C 20.96875 99.449219 20.882812 98.261719 20.824219 97.070312 C 20.765625 95.882812 20.734375 94.691406 20.734375 93.5 C 20.734375 92.308594 20.765625 91.121094 20.824219 89.929688 C 20.882812 88.742188 20.96875 87.554688 21.085938 86.367188 C 21.203125 85.183594 21.347656 84 21.523438 82.824219 C 21.699219 81.644531 21.902344 80.472656 22.132812 79.304688 C 22.367188 78.136719 22.625 76.976562 22.917969 75.820312 C 23.207031 74.664062 23.523438 73.519531 23.867188 72.378906 C 24.214844 71.238281 24.585938 70.109375 24.988281 68.988281 C 25.390625 67.867188 25.820312 66.753906 26.273438 65.65625 C 26.730469 64.554688 27.210938 63.464844 27.722656 62.390625 C 28.230469 61.3125 28.765625 60.25 29.328125 59.199219 C 29.890625 58.148438 30.476562 57.113281 31.089844 56.09375 C 31.699219 55.070312 32.335938 54.066406 33 53.074219 C 33.660156 52.085938 34.347656 51.109375 35.054688 50.15625 C 35.765625 49.199219 36.496094 48.257812 37.253906 47.339844 C 38.007812 46.417969 38.785156 45.515625 39.585938 44.632812 C 40.386719 43.753906 41.207031 42.890625 42.046875 42.046875 C 42.890625 41.207031 43.753906 40.386719 44.632812 39.585938 C 45.515625 38.785156 46.417969 38.007812 47.339844 37.253906 C 48.257812 36.496094 49.199219 35.765625 50.15625 35.054688 C 51.109375 34.347656 52.085938 33.660156 53.074219 33 C 54.066406 32.335938 55.070312 31.699219 56.09375 31.089844 C 57.113281 30.476562 58.148438 29.890625 59.199219 29.328125 C 60.25 28.765625 61.3125 28.230469 62.390625 27.722656 C 63.464844 27.210938 64.554688 26.730469 65.65625 26.273438 C 66.753906 25.820312 67.867188 25.390625 68.988281 24.988281 C 70.109375 24.585938 71.238281 24.214844 72.378906 23.867188 C 73.519531 23.523438 74.664062 23.207031 75.820312 22.917969 C 76.976562 22.625 78.136719 22.367188 79.304688 22.132812 C 80.472656 21.902344 81.644531 21.699219 82.824219 21.523438 C 84 21.347656 85.183594 21.203125 86.367188 21.085938 C 87.554688 20.96875 88.742188 20.882812 89.929688 20.824219 C 91.121094 20.765625 92.308594 20.734375 93.5 20.734375 C 94.691406 20.734375 95.882812 20.765625 97.070312 20.824219 C 98.261719 20.882812 99.449219 20.96875 100.632812 21.085938 C 101.816406 21.203125 103 21.347656 104.175781 21.523438 C 105.355469 21.699219 106.527344 21.902344 107.695312 22.132812 C 108.863281 22.367188 110.027344 22.625 111.179688 22.917969 C 112.335938 23.207031 113.484375 23.523438 114.625 23.867188 C 115.761719 24.214844 116.894531 24.585938 118.015625 24.988281 C 119.136719 25.390625 120.246094 25.820312 121.347656 26.273438 C 122.445312 26.730469 123.535156 27.210938 124.613281 27.722656 C 125.6875 28.230469 126.75 28.765625 127.800781 29.328125 C 128.851562 29.890625 129.886719 30.476562 130.910156 31.089844 C 131.929688 31.699219 132.9375 32.335938 133.925781 33 C 134.917969 33.660156 135.890625 34.347656 136.847656 35.054688 C 137.804688 35.765625 138.742188 36.496094 139.664062 37.253906 C 140.582031 38.007812 141.484375 38.785156 142.367188 39.585938 C 143.25 40.386719 144.109375 41.207031 144.953125 42.046875 C 145.796875 42.890625 146.617188 43.753906 147.417969 44.632812 C 148.214844 45.515625 148.992188 46.417969 149.75 47.339844 C 150.503906 48.257812 151.238281 49.199219 151.945312 50.15625 C 152.65625 51.109375 153.339844 52.085938 154.003906 53.074219 C 154.664062 54.066406 155.300781 55.070312 155.914062 56.09375 C 156.527344 57.113281 157.113281 58.148438 157.671875 59.199219 C 158.234375 60.25 158.769531 61.3125 159.28125 62.390625 C 159.789062 63.464844 160.269531 64.554688 160.726562 65.65625 C 161.183594 66.753906 161.609375 67.867188 162.011719 68.988281 C 162.414062 70.109375 162.785156 71.238281 163.132812 72.378906 C 163.476562 73.519531 163.796875 74.664062 164.085938 75.820312 C 164.375 76.976562 164.636719 78.136719 164.867188 79.304688 C 165.101562 80.472656 165.304688 81.644531 165.476562 82.824219 C 165.652344 84 165.796875 85.183594 165.914062 86.367188 C 166.03125 87.554688 166.121094 88.742188 166.179688 89.929688 C 166.238281 91.121094 166.265625 92.308594 166.265625 93.5 Z M 166.265625 93.5 "/><path style=" stroke:none;fill-rule:nonzero;fill:#2beae4;fill-opacity:1;" d="M 113.449219 54.828125 C 115.074219 54.523438 116.601562 55.746094 116.601562 57.371094 L 116.601562 111.105469 C 116.601562 116.90625 111.308594 119.453125 111.308594 119.453125 C 102.964844 123.015625 99.199219 120.265625 97.164062 117.722656 C 95.128906 115.175781 95.738281 111.105469 95.738281 111.105469 C 96.757812 103.167969 108.867188 103.066406 108.867188 103.066406 C 112.226562 102.660156 112.53125 99.808594 112.53125 99.808594 L 112.53125 74.980469 C 112.53125 73.65625 111.308594 72.636719 109.988281 72.941406 L 81.390625 78.640625 C 80.371094 78.847656 79.761719 79.660156 79.761719 80.675781 L 79.761719 118.636719 C 79.761719 124.4375 74.46875 126.984375 74.46875 126.984375 C 66.125 130.542969 62.359375 127.796875 60.324219 125.253906 C 58.289062 122.707031 58.898438 118.636719 58.898438 118.636719 C 59.917969 110.699219 72.027344 110.597656 72.027344 110.597656 C 75.386719 110.191406 75.691406 107.339844 75.691406 107.339844 L 75.691406 65.308594 C 75.691406 63.683594 76.914062 62.257812 78.539062 61.851562 Z M 113.449219 54.828125 "/><path style=" stroke:none;fill-rule:nonzero;fill:#f23358;fill-opacity:1;" d="M 117.007812 58.390625 C 118.636719 58.085938 120.164062 59.304688 120.164062 60.933594 L 120.164062 114.667969 C 120.164062 120.46875 114.871094 123.015625 114.871094 123.015625 C 106.527344 126.574219 102.761719 123.828125 100.726562 121.285156 C 98.691406 118.738281 99.300781 114.667969 99.300781 114.667969 C 100.320312 106.730469 112.429688 106.628906 112.429688 106.628906 C 115.789062 106.222656 116.09375 103.371094 116.09375 103.371094 L 116.09375 78.539062 C 116.09375 77.21875 114.871094 76.199219 113.550781 76.503906 L 84.953125 82.203125 C 83.933594 82.40625 83.324219 83.222656 83.324219 84.238281 L 83.324219 122.199219 C 83.324219 128 78.03125 130.542969 78.03125 130.542969 C 69.6875 134.105469 65.921875 131.359375 63.886719 128.816406 C 61.851562 126.269531 62.460938 122.199219 62.460938 122.199219 C 63.480469 114.261719 75.589844 114.160156 75.589844 114.160156 C 78.949219 113.753906 79.253906 110.902344 79.253906 110.902344 L 79.253906 68.871094 C 79.253906 67.246094 80.472656 65.820312 82.101562 65.414062 Z M 117.007812 58.390625 "/><path style=" stroke:none;fill-rule:nonzero;fill:#ffffff;fill-opacity:1;" d="M 115.175781 56.660156 C 116.804688 56.355469 118.332031 57.574219 118.332031 59.203125 L 118.332031 112.9375 C 118.332031 118.738281 113.039062 121.285156 113.039062 121.285156 C 104.695312 124.84375 100.929688 122.097656 98.894531 119.554688 C 96.859375 117.007812 97.46875 112.9375 97.46875 112.9375 C 98.488281 105 110.597656 104.898438 110.597656 104.898438 C 113.957031 104.492188 114.261719 101.640625 114.261719 101.640625 L 114.261719 76.707031 C 114.261719 75.386719 113.039062 74.367188 111.71875 74.671875 L 83.121094 80.371094 C 82.101562 80.574219 81.492188 81.390625 81.492188 82.40625 L 81.492188 120.367188 C 81.492188 126.167969 76.199219 128.710938 76.199219 128.710938 C 67.855469 132.273438 64.089844 129.527344 62.054688 126.984375 C 60.019531 124.4375 60.628906 120.367188 60.628906 120.367188 C 61.648438 112.429688 73.757812 112.328125 73.757812 112.328125 C 77.117188 111.921875 77.421875 109.070312 77.421875 109.070312 L 77.421875 67.140625 C 77.421875 65.515625 78.640625 64.089844 80.269531 63.683594 Z M 115.175781 56.660156 "/></g></svg>