<svg xmlns="http://www.w3.org/2000/svg" xmlns:xlink="http://www.w3.org/1999/xlink" width="250" zoomAndPan="magnify" viewBox="0 0 187.5 187.499992" height="250" preserveAspectRatio="xMidYMid meet" version="1.2"><defs><clipPath id="bf67905cad"><path d="M 18.699219 18.21875 L 168.300781 18.21875 L 168.300781 168.566406 L 18.699219 168.566406 Z M 18.699219 18.21875 "/></clipPath></defs><g id="bf6bff0415"><g clip-rule="nonzero" clip-path="url(#bf67905cad)"><path style=" stroke:none;fill-rule:nonzero;fill:#000000;fill-opacity:1;" d="M 168.300781 93.371094 C 168.300781 94.597656 168.269531 95.824219 168.210938 97.050781 C 168.148438 98.277344 168.058594 99.5 167.941406 100.722656 C 167.820312 101.945312 167.671875 103.164062 167.492188 104.378906 C 167.3125 105.59375 167.101562 106.800781 166.863281 108.007812 C 166.625 109.210938 166.355469 110.40625 166.058594 111.597656 C 165.761719 112.789062 165.433594 113.972656 165.078125 115.148438 C 164.722656 116.324219 164.339844 117.488281 163.925781 118.644531 C 163.515625 119.800781 163.074219 120.945312 162.605469 122.078125 C 162.136719 123.214844 161.640625 124.335938 161.117188 125.445312 C 160.59375 126.554688 160.042969 127.652344 159.46875 128.734375 C 158.890625 129.816406 158.289062 130.886719 157.65625 131.9375 C 157.027344 132.992188 156.375 134.03125 155.695312 135.050781 C 155.015625 136.070312 154.308594 137.074219 153.582031 138.0625 C 152.851562 139.046875 152.097656 140.015625 151.320312 140.964844 C 150.542969 141.914062 149.746094 142.84375 148.921875 143.753906 C 148.101562 144.660156 147.257812 145.550781 146.390625 146.417969 C 145.527344 147.289062 144.640625 148.132812 143.734375 148.957031 C 142.824219 149.785156 141.898438 150.585938 140.953125 151.363281 C 140.007812 152.144531 139.042969 152.898438 138.058594 153.628906 C 137.074219 154.359375 136.074219 155.066406 135.058594 155.75 C 134.039062 156.429688 133.003906 157.089844 131.957031 157.71875 C 130.90625 158.351562 129.839844 158.957031 128.761719 159.535156 C 127.679688 160.113281 126.589844 160.664062 125.480469 161.191406 C 124.375 161.714844 123.257812 162.210938 122.125 162.683594 C 120.992188 163.152344 119.851562 163.59375 118.699219 164.007812 C 117.546875 164.421875 116.386719 164.804688 115.214844 165.164062 C 114.042969 165.519531 112.863281 165.847656 111.675781 166.144531 C 110.488281 166.441406 109.292969 166.710938 108.09375 166.949219 C 106.894531 167.191406 105.6875 167.402344 104.476562 167.582031 C 103.265625 167.761719 102.050781 167.910156 100.832031 168.03125 C 99.613281 168.152344 98.394531 168.242188 97.171875 168.304688 C 95.949219 168.363281 94.726562 168.394531 93.5 168.394531 C 92.277344 168.394531 91.054688 168.363281 89.832031 168.304688 C 88.609375 168.242188 87.386719 168.152344 86.167969 168.03125 C 84.949219 167.914062 83.738281 167.761719 82.527344 167.582031 C 81.316406 167.402344 80.109375 167.191406 78.90625 166.953125 C 77.707031 166.710938 76.511719 166.441406 75.324219 166.144531 C 74.140625 165.847656 72.960938 165.519531 71.789062 165.164062 C 70.617188 164.804688 69.453125 164.421875 68.300781 164.007812 C 67.148438 163.59375 66.007812 163.152344 64.875 162.683594 C 63.746094 162.210938 62.625 161.714844 61.519531 161.191406 C 60.414062 160.664062 59.320312 160.113281 58.242188 159.535156 C 57.160156 158.957031 56.097656 158.351562 55.046875 157.71875 C 53.996094 157.089844 52.960938 156.429688 51.945312 155.75 C 50.925781 155.066406 49.925781 154.359375 48.941406 153.628906 C 47.960938 152.898438 46.996094 152.144531 46.046875 151.363281 C 45.101562 150.585938 44.175781 149.785156 43.269531 148.957031 C 42.363281 148.132812 41.476562 147.289062 40.609375 146.417969 C 39.742188 145.550781 38.898438 144.660156 38.078125 143.753906 C 37.257812 142.84375 36.457031 141.914062 35.679688 140.964844 C 34.902344 140.015625 34.152344 139.046875 33.421875 138.0625 C 32.691406 137.074219 31.988281 136.070312 31.308594 135.050781 C 30.628906 134.03125 29.972656 132.992188 29.34375 131.941406 C 28.714844 130.886719 28.109375 129.816406 27.535156 128.734375 C 26.957031 127.652344 26.40625 126.554688 25.882812 125.445312 C 25.359375 124.335938 24.863281 123.214844 24.394531 122.078125 C 23.925781 120.945312 23.488281 119.800781 23.074219 118.644531 C 22.660156 117.488281 22.277344 116.324219 21.921875 115.148438 C 21.566406 113.972656 21.242188 112.789062 20.941406 111.597656 C 20.644531 110.40625 20.378906 109.210938 20.140625 108.007812 C 19.898438 106.800781 19.691406 105.59375 19.511719 104.378906 C 19.332031 103.164062 19.183594 101.945312 19.0625 100.722656 C 18.941406 99.5 18.851562 98.277344 18.792969 97.050781 C 18.730469 95.824219 18.703125 94.597656 18.703125 93.371094 C 18.703125 92.140625 18.730469 90.914062 18.792969 89.6875 C 18.851562 88.460938 18.941406 87.238281 19.0625 86.015625 C 19.183594 84.792969 19.332031 83.578125 19.511719 82.363281 C 19.691406 81.148438 19.898438 79.9375 20.140625 78.734375 C 20.378906 77.527344 20.644531 76.332031 20.941406 75.140625 C 21.242188 73.949219 21.566406 72.765625 21.921875 71.59375 C 22.277344 70.417969 22.660156 69.25 23.074219 68.09375 C 23.488281 66.9375 23.925781 65.792969 24.394531 64.660156 C 24.863281 63.523438 25.359375 62.402344 25.882812 61.292969 C 26.40625 60.183594 26.957031 59.085938 27.535156 58.003906 C 28.109375 56.921875 28.714844 55.851562 29.34375 54.800781 C 29.972656 53.746094 30.628906 52.710938 31.308594 51.6875 C 31.988281 50.667969 32.691406 49.664062 33.421875 48.679688 C 34.152344 47.691406 34.902344 46.722656 35.679688 45.773438 C 36.457031 44.828125 37.257812 43.898438 38.078125 42.988281 C 38.898438 42.078125 39.742188 41.1875 40.609375 40.320312 C 41.476562 39.453125 42.363281 38.605469 43.269531 37.78125 C 44.175781 36.957031 45.101562 36.15625 46.046875 35.375 C 46.996094 34.597656 47.960938 33.84375 48.941406 33.109375 C 49.925781 32.378906 50.925781 31.671875 51.945312 30.988281 C 52.960938 30.308594 53.996094 29.652344 55.046875 29.019531 C 56.097656 28.390625 57.160156 27.785156 58.242188 27.207031 C 59.320312 26.625 60.414062 26.074219 61.519531 25.550781 C 62.625 25.023438 63.746094 24.527344 64.875 24.058594 C 66.007812 23.585938 67.148438 23.144531 68.300781 22.730469 C 69.453125 22.320312 70.617188 21.933594 71.789062 21.578125 C 72.960938 21.222656 74.136719 20.894531 75.324219 20.59375 C 76.511719 20.296875 77.707031 20.027344 78.90625 19.789062 C 80.109375 19.550781 81.316406 19.339844 82.527344 19.160156 C 83.738281 18.980469 84.949219 18.828125 86.167969 18.707031 C 87.386719 18.589844 88.609375 18.496094 89.832031 18.4375 C 91.054688 18.378906 92.277344 18.347656 93.5 18.347656 C 94.726562 18.347656 95.949219 18.378906 97.171875 18.4375 C 98.394531 18.496094 99.613281 18.589844 100.832031 18.707031 C 102.050781 18.828125 103.265625 18.980469 104.476562 19.160156 C 105.6875 19.339844 106.894531 19.546875 108.09375 19.789062 C 109.292969 20.027344 110.488281 20.296875 111.675781 20.59375 C 112.863281 20.894531 114.042969 21.222656 115.214844 21.578125 C 116.386719 21.933594 117.546875 22.320312 118.699219 22.730469 C 119.851562 23.144531 120.992188 23.585938 122.125 24.058594 C 123.257812 24.527344 124.375 25.023438 125.480469 25.550781 C 126.589844 26.074219 127.679688 26.625 128.761719 27.207031 C 129.839844 27.785156 130.90625 28.390625 131.957031 29.019531 C 133.003906 29.652344 134.039062 30.308594 135.058594 30.988281 C 136.074219 31.671875 137.074219 32.378906 138.058594 33.109375 C 139.042969 33.839844 140.007812 34.597656 140.953125 35.375 C 141.898438 36.15625 142.824219 36.957031 143.734375 37.78125 C 144.640625 38.605469 145.527344 39.453125 146.390625 40.320312 C 147.257812 41.1875 148.101562 42.078125 148.921875 42.988281 C 149.746094 43.898438 150.542969 44.824219 151.320312 45.773438 C 152.097656 46.722656 152.851562 47.691406 153.578125 48.679688 C 154.308594 49.664062 155.015625 50.667969 155.695312 51.6875 C 156.375 52.710938 157.027344 53.746094 157.65625 54.800781 C 158.289062 55.851562 158.890625 56.921875 159.46875 58.003906 C 160.042969 59.085938 160.59375 60.183594 161.117188 61.292969 C 161.640625 62.402344 162.136719 63.523438 162.605469 64.660156 C 163.074219 65.792969 163.515625 66.9375 163.925781 68.09375 C 164.339844 69.25 164.722656 70.417969 165.078125 71.59375 C 165.433594 72.765625 165.761719 73.949219 166.058594 75.140625 C 166.355469 76.332031 166.625 77.527344 166.863281 78.734375 C 167.101562 79.9375 167.3125 81.148438 167.492188 82.359375 C 167.671875 83.574219 167.820312 84.792969 167.941406 86.015625 C 168.058594 87.238281 168.148438 88.460938 168.210938 89.6875 C 168.269531 90.914062 168.300781 92.140625 168.300781 93.371094 Z M 168.300781 93.371094 "/></g><path style="fill-rule:evenodd;fill:#ffffff;fill-opacity:1;stroke-width:2.14;stroke-linecap:round;stroke-linejoin:round;stroke:#ffffff;stroke-opacity:1;stroke-miterlimit:1.5;" d="M 30640.40049 9422.353613 L 30685.695146 9422.030386 L 30795.700208 9582.123882 L 30750.002699 9581.722033 Z M 30640.40049 9422.353613 " transform="matrix(0.446038,0,0,0.447151,-13607.930391,-4156.369357)"/><path style="fill-rule:evenodd;fill:#ffffff;fill-opacity:1;stroke-width:2.14;stroke-linecap:round;stroke-linejoin:round;stroke:#ffffff;stroke-opacity:1;stroke-miterlimit:1.5;" d="M 30776.801162 9422.030386 L 30790.901007 9422.030386 L 30654.001147 9582.123882 L 30640.40049 9582.123882 Z M 30776.801162 9422.030386 " transform="matrix(0.446038,0,0,0.447151,-13607.930391,-4156.369357)"/><path style=" stroke:none;fill-rule:evenodd;fill:#000000;fill-opacity:1;" d="M 67.183594 62.257812 L 76.550781 62.3125 L 119.859375 124.484375 L 110.492188 124.46875 Z M 67.183594 62.257812 "/><path style=" stroke:none;fill-rule:evenodd;fill:#000000;fill-opacity:1;" d="M 67.183594 62.257812 L 76.550781 62.3125 L 119.859375 124.484375 L 110.492188 124.46875 Z M 67.898438 62.636719 C 67.898438 62.636719 110.671875 124.09375 110.671875 124.09375 C 110.671875 124.09375 119.148438 124.105469 119.148438 124.105469 L 76.328125 62.6875 Z M 67.898438 62.636719 "/></g></svg>