<svg xmlns="http://www.w3.org/2000/svg" xmlns:xlink="http://www.w3.org/1999/xlink" width="250" zoomAndPan="magnify" viewBox="0 0 187.5 187.499992" height="250" preserveAspectRatio="xMidYMid meet" version="1.2"><defs><clipPath id="5ace17705d"><path d="M 14.988281 18.699219 L 172.070312 18.699219 L 172.070312 175.78125 L 14.988281 175.78125 Z M 14.988281 18.699219 "/></clipPath></defs><g id="61a8419a62"><g clip-rule="nonzero" clip-path="url(#5ace17705d)"><path style=" stroke:none;fill-rule:nonzero;fill:#ff3131;fill-opacity:1;" d="M 93.5 18.699219 C 50.132812 18.699219 14.988281 53.84375 14.988281 97.210938 C 14.988281 140.578125 50.132812 175.722656 93.5 175.722656 C 136.867188 175.722656 172.011719 140.578125 172.011719 97.210938 C 171.945312 53.84375 136.800781 18.699219 93.5 18.699219 Z M 138.703125 119.167969 C 137.820312 124.945312 132.789062 129.160156 126.945312 129.160156 L 59.988281 129.160156 C 54.144531 129.160156 49.113281 124.945312 48.230469 119.167969 C 47.414062 113.796875 46.597656 106.320312 46.53125 97.144531 C 46.597656 87.96875 47.34375 80.558594 48.230469 75.121094 C 49.113281 69.339844 54.144531 65.128906 59.988281 65.128906 L 126.945312 65.128906 C 132.789062 65.128906 137.820312 69.339844 138.703125 75.121094 C 139.519531 80.488281 140.335938 87.96875 140.402344 97.144531 C 140.335938 106.320312 139.519531 113.796875 138.703125 119.167969 Z M 138.703125 119.167969 "/></g><path style=" stroke:none;fill-rule:nonzero;fill:#ff3131;fill-opacity:1;" d="M 83.578125 84.433594 L 83.578125 109.921875 L 107.300781 97.210938 Z M 83.578125 84.433594 "/></g></svg>